<svg width="76" height="75" viewBox="0 0 76 75" fill="none" xmlns="http://www.w3.org/2000/svg">
<circle cx="32.5" cy="32.5" r="32.5" fill="#96F7D2"/>
<path d="M62.6213 43.7525C63.1938 45.7363 63.5 47.8325 63.5 50C63.5 62.4262 53.4262 72.5 41 72.5C28.5738 72.5 18.5 62.4262 18.5 50C18.5 37.5738 28.5738 27.5 41 27.5C43.17 27.5 45.2688 27.8075 47.2538 28.38" stroke="#25373F" stroke-width="3" stroke-miterlimit="10" stroke-linecap="round" stroke-linejoin="round"/>
<path d="M41 62.5C47.9036 62.5 53.5 56.9036 53.5 50C53.5 43.0964 47.9036 37.5 41 37.5C34.0964 37.5 28.5 43.0964 28.5 50C28.5 56.9036 34.0964 62.5 41 62.5Z" stroke="#25373F" stroke-width="3" stroke-miterlimit="10" stroke-linecap="round" stroke-linejoin="round"/>
<path d="M41 50L69.75 21.25" stroke="#25373F" stroke-width="3" stroke-miterlimit="10" stroke-linecap="round" stroke-linejoin="round"/>
<path d="M64.75 26.25L62.25 18.75L54.75 26.25L57.25 33.75L64.75 36.25L72.25 28.75L64.75 26.25Z" stroke="#25373F" stroke-width="3" stroke-miterlimit="10" stroke-linecap="round" stroke-linejoin="round"/>
</svg>
