<svg width="77" height="78" viewBox="0 0 77 78" fill="none" xmlns="http://www.w3.org/2000/svg">
<circle cx="32.5" cy="32.5" r="32.5" fill="#FFD166"/>
<path d="M60.5938 30.75C63.8557 30.75 66.5 28.1057 66.5 24.8438C66.5 21.5818 63.8557 18.9375 60.5938 18.9375C57.3318 18.9375 54.6875 21.5818 54.6875 24.8438C54.6875 28.1057 57.3318 30.75 60.5938 30.75Z" stroke="#25373F" stroke-width="3" stroke-miterlimit="10" stroke-linecap="round" stroke-linejoin="round"/>
<path d="M46.8126 30.75L36.4149 43.0376C35.92 43.6227 35.5592 44.309 35.3579 45.0484C35.1565 45.7878 35.1194 46.5623 35.2492 47.3176C35.3791 48.0728 35.6727 48.7905 36.1094 49.4201C36.5461 50.0498 37.1154 50.5763 37.7773 50.9625L46.8716 56.2676C47.0296 56.3606 47.1664 56.4857 47.2731 56.6348C47.3798 56.7838 47.4541 56.9536 47.4912 57.1332C47.5283 57.3127 47.5274 57.498 47.4885 57.6772C47.4496 57.8563 47.3736 58.0254 47.2654 58.1734L37.6251 71.4375" stroke="#25373F" stroke-width="3" stroke-miterlimit="10" stroke-linecap="round" stroke-linejoin="round"/>
<path d="M27.125 34.6875L31.85 27.6C32.0032 27.3696 32.2253 27.1935 32.4846 27.0968C32.7439 27.0002 33.0271 26.9879 33.2937 27.0619L46.8125 30.75L57.3125 38.625L63.35 49.486C63.4987 49.7534 63.7361 49.9606 64.0213 50.0715C64.3065 50.1825 64.6215 50.1903 64.9119 50.0936L71.75 47.8125" stroke="#25373F" stroke-width="3" stroke-miterlimit="10" stroke-linecap="round" stroke-linejoin="round"/>
<path d="M57.3125 38.625L48.125 49.4938" stroke="#25373F" stroke-width="3" stroke-miterlimit="10" stroke-linecap="round" stroke-linejoin="round"/>
<path d="M32.375 55.6875L19.25 71.4375" stroke="#25373F" stroke-width="3" stroke-miterlimit="10" stroke-linecap="round" stroke-linejoin="round"/>
</svg>
