<svg width="83" height="75" viewBox="0 0 83 75" fill="none" xmlns="http://www.w3.org/2000/svg">
<circle cx="32.5" cy="32.5" r="32.5" fill="#A9D2FF"/>
<path d="M52.125 53.625H28.375V20.375H75.875V35.8125" stroke="#25373F" stroke-width="3" stroke-miterlimit="10" stroke-linecap="round" stroke-linejoin="round"/>
<path d="M69.9375 51.25C75.84 51.25 80.625 49.1234 80.625 46.5C80.625 43.8766 75.84 41.75 69.9375 41.75C64.035 41.75 59.25 43.8766 59.25 46.5C59.25 49.1234 64.035 51.25 69.9375 51.25Z" stroke="#25373F" stroke-width="3" stroke-miterlimit="10" stroke-linecap="round" stroke-linejoin="round"/>
<path d="M59.25 46.5V53.625C59.25 56.2482 64.0344 58.375 69.9375 58.375C75.8406 58.375 80.625 56.2482 80.625 53.625V46.5" stroke="#25373F" stroke-width="3" stroke-miterlimit="10" stroke-linecap="round" stroke-linejoin="round"/>
<path d="M59.25 53.625V60.75C59.25 63.3732 64.0344 65.5 69.9375 65.5C75.8406 65.5 80.625 63.3732 80.625 60.75V53.625" stroke="#25373F" stroke-width="3" stroke-miterlimit="10" stroke-linecap="round" stroke-linejoin="round"/>
<path d="M59.25 60.75V67.875C59.25 70.4982 64.0344 72.625 69.9375 72.625C75.8406 72.625 80.625 70.4982 80.625 67.875V60.75" stroke="#25373F" stroke-width="3" stroke-miterlimit="10" stroke-linecap="round" stroke-linejoin="round"/>
<path d="M52.125 41.75C54.7484 41.75 56.875 39.6234 56.875 37C56.875 34.3766 54.7484 32.25 52.125 32.25C49.5016 32.25 47.375 34.3766 47.375 37C47.375 39.6234 49.5016 41.75 52.125 41.75Z" stroke="#25373F" stroke-width="3" stroke-miterlimit="10" stroke-linecap="round" stroke-linejoin="round"/>
</svg>
