<svg width="124" height="40" viewBox="0 0 124 40" fill="none" xmlns="http://www.w3.org/2000/svg">
<path d="M23.517 29H27.2074V21.7898H34.3068V18.7472H27.2074V14.5881H35.0739V11.5455H23.517V29ZM41.0568 29.2472C42.9915 29.2472 44.2443 28.4034 44.8835 27.1847H44.9858V29H48.429V20.1705C48.429 17.0511 45.7869 15.7386 42.8722 15.7386C39.7358 15.7386 37.6733 17.2386 37.1705 19.625L40.5284 19.8977C40.7756 19.0284 41.5511 18.3892 42.8551 18.3892C44.0909 18.3892 44.7983 19.0114 44.7983 20.0852V20.1364C44.7983 20.9801 43.9034 21.0909 41.6278 21.3125C39.0369 21.5511 36.7102 22.4205 36.7102 25.3438C36.7102 27.9347 38.5597 29.2472 41.0568 29.2472ZM42.0966 26.7415C40.9801 26.7415 40.179 26.2216 40.179 25.2244C40.179 24.2017 41.0227 23.6989 42.3011 23.5199C43.0938 23.4091 44.3892 23.2216 44.8239 22.9318V24.321C44.8239 25.6932 43.6903 26.7415 42.0966 26.7415ZM62.1378 19.642C61.8139 17.2301 59.8707 15.7386 56.5639 15.7386C53.2145 15.7386 51.0071 17.2898 51.0156 19.8125C51.0071 21.7727 52.2429 23.0426 54.7997 23.554L57.0668 24.0057C58.2088 24.2358 58.7287 24.6534 58.7457 25.3097C58.7287 26.0852 57.8849 26.6392 56.6151 26.6392C55.3196 26.6392 54.4588 26.0852 54.2372 25.0199L50.6662 25.2074C51.0071 27.7131 53.1378 29.2557 56.6065 29.2557C59.9986 29.2557 62.4276 27.5256 62.4361 24.9432C62.4276 23.0511 61.1918 21.9176 58.652 21.3977L56.2827 20.9205C55.0639 20.6562 54.6122 20.2386 54.6207 19.608C54.6122 18.8239 55.4986 18.3125 56.6236 18.3125C57.8849 18.3125 58.6349 19.0028 58.8139 19.8466L62.1378 19.642ZM71.6854 15.9091H69.2223V12.7727H65.5916V15.9091H63.8018V18.6364H65.5916V25.4545C65.5746 28.0199 67.3217 29.2898 69.9553 29.179C70.8928 29.1449 71.5575 28.9574 71.924 28.8381L71.353 26.1364C71.174 26.1705 70.7905 26.2557 70.4496 26.2557C69.7251 26.2557 69.2223 25.983 69.2223 24.9773V18.6364H71.6854V15.9091ZM77.9624 11.5455H74.3317V29H77.9624V11.5455ZM84.6037 29.2472C86.5384 29.2472 87.7912 28.4034 88.4304 27.1847H88.5327V29H91.9759V20.1705C91.9759 17.0511 89.3338 15.7386 86.419 15.7386C83.2827 15.7386 81.2202 17.2386 80.7173 19.625L84.0753 19.8977C84.3224 19.0284 85.098 18.3892 86.402 18.3892C87.6378 18.3892 88.3452 19.0114 88.3452 20.0852V20.1364C88.3452 20.9801 87.4503 21.0909 85.1747 21.3125C82.5838 21.5511 80.2571 22.4205 80.2571 25.3438C80.2571 27.9347 82.1065 29.2472 84.6037 29.2472ZM85.6435 26.7415C84.527 26.7415 83.7259 26.2216 83.7259 25.2244C83.7259 24.2017 84.5696 23.6989 85.848 23.5199C86.6406 23.4091 87.9361 23.2216 88.3707 22.9318V24.321C88.3707 25.6932 87.2372 26.7415 85.6435 26.7415ZM98.4233 21.4318C98.4318 19.7443 99.4375 18.7557 100.903 18.7557C102.361 18.7557 103.239 19.7102 103.23 21.3125V29H106.861V20.6648C106.861 17.6136 105.071 15.7386 102.344 15.7386C100.401 15.7386 98.9943 16.6932 98.4062 18.2188H98.2528V15.9091H94.7926V29H98.4233V21.4318ZM114.546 29.2131C116.66 29.2131 117.759 27.9943 118.262 26.9034H118.415V29H121.995V11.5455H118.373V18.108H118.262C117.776 17.0426 116.728 15.7386 114.538 15.7386C111.665 15.7386 109.237 17.9716 109.237 22.4716C109.237 26.8523 111.563 29.2131 114.546 29.2131ZM115.697 26.3239C113.915 26.3239 112.944 24.7386 112.944 22.4545C112.944 20.1875 113.898 18.6278 115.697 18.6278C117.461 18.6278 118.45 20.1193 118.45 22.4545C118.45 24.7898 117.444 26.3239 115.697 26.3239Z" fill="white"/>
<g clip-path="url(#clip0_1_1544)">
<path d="M15.7362 16.6388H10.844L12.5105 10.8065C12.5499 10.6681 12.5224 10.5196 12.4358 10.4046C12.3491 10.2895 12.2135 10.2222 12.0696 10.2222H5.65289C5.44618 10.2222 5.26514 10.3606 5.2106 10.56L2.4606 20.6433C2.42302 20.7813 2.45189 20.9288 2.53852 21.042C2.6256 21.1553 2.75989 21.2222 2.90289 21.2222H7.85381L6.11856 30.7651C6.0796 30.9787 6.19602 31.1905 6.39768 31.272C6.45406 31.295 6.51227 31.3055 6.56956 31.3055C6.71943 31.3055 6.86427 31.2322 6.95135 31.1015L16.118 17.3515C16.212 17.2108 16.2207 17.0303 16.1409 16.8813C16.0607 16.7319 15.9054 16.6388 15.7362 16.6388Z" fill="white"/>
</g>
<defs>
<clipPath id="clip0_1_1544">
<rect width="22" height="22" fill="white" transform="translate(0 9)"/>
</clipPath>
</defs>
</svg>
