<svg width="123" height="40" viewBox="0 0 123 40" fill="none" xmlns="http://www.w3.org/2000/svg">
<path d="M23.7216 29H26.8835V21.5852H34.1364V18.9347H26.8835V14.196H34.9034V11.5455H23.7216V29ZM41.2976 29.2642C43.3516 29.2642 44.5788 28.3011 45.1413 27.2017H45.2436V29H48.2095V20.2386C48.2095 16.7784 45.3885 15.7386 42.8913 15.7386C40.1385 15.7386 38.0249 16.9659 37.343 19.3523L40.2237 19.7614C40.5305 18.8665 41.3999 18.0994 42.9084 18.0994C44.3402 18.0994 45.1243 18.8324 45.1243 20.1193V20.1705C45.1243 21.0568 44.1953 21.0994 41.8857 21.3466C39.3459 21.6193 36.9169 22.3778 36.9169 25.3267C36.9169 27.9006 38.8004 29.2642 41.2976 29.2642ZM42.0987 26.9972C40.8118 26.9972 39.8913 26.4091 39.8913 25.2756C39.8913 24.0909 40.9226 23.5966 42.3033 23.4006C43.1129 23.2898 44.7322 23.0852 45.1328 22.7614V24.304C45.1328 25.7614 43.9567 26.9972 42.0987 26.9972ZM61.6584 19.3693C61.2322 17.1534 59.4595 15.7386 56.3913 15.7386C53.2379 15.7386 51.0902 17.2898 51.0987 19.7102C51.0902 21.6193 52.2663 22.8807 54.7805 23.4006L57.0135 23.8693C58.2152 24.1335 58.7777 24.6193 58.7777 25.3608C58.7777 26.2557 57.8061 26.929 56.3402 26.929C54.9254 26.929 54.005 26.3153 53.7408 25.1392L50.7322 25.429C51.1158 27.8324 53.1357 29.2557 56.3487 29.2557C59.6214 29.2557 61.9311 27.5597 61.9396 25.0795C61.9311 23.2131 60.7294 22.071 58.2578 21.5341L56.0249 21.0568C54.6953 20.7585 54.1669 20.2983 54.1754 19.5398C54.1669 18.6534 55.147 18.0398 56.4339 18.0398C57.8572 18.0398 58.6072 18.8153 58.8459 19.6761L61.6584 19.3693ZM71.0206 15.9091H68.4382V12.7727H65.353V15.9091H63.495V18.2955H65.353V25.5739C65.3359 28.0369 67.1257 29.2472 69.4439 29.179C70.3217 29.1534 70.9268 28.983 71.2592 28.8722L70.7393 26.4602C70.5689 26.5028 70.2195 26.5795 69.8359 26.5795C69.0604 26.5795 68.4382 26.3068 68.4382 25.0625V18.2955H71.0206V15.9091ZM76.9673 11.5455H73.8821V29H76.9673V11.5455ZM83.907 29.2642C85.9609 29.2642 87.1882 28.3011 87.7507 27.2017H87.853V29H90.8189V20.2386C90.8189 16.7784 87.9979 15.7386 85.5007 15.7386C82.7479 15.7386 80.6342 16.9659 79.9524 19.3523L82.8331 19.7614C83.1399 18.8665 84.0092 18.0994 85.5178 18.0994C86.9496 18.0994 87.7337 18.8324 87.7337 20.1193V20.1705C87.7337 21.0568 86.8047 21.0994 84.495 21.3466C81.9553 21.6193 79.5263 22.3778 79.5263 25.3267C79.5263 27.9006 81.4098 29.2642 83.907 29.2642ZM84.7081 26.9972C83.4212 26.9972 82.5007 26.4091 82.5007 25.2756C82.5007 24.0909 83.532 23.5966 84.9126 23.4006C85.7223 23.2898 87.3416 23.0852 87.7422 22.7614V24.304C87.7422 25.7614 86.5661 26.9972 84.7081 26.9972ZM97.0064 21.3295C97.0064 19.4375 98.1484 18.3466 99.7763 18.3466C101.37 18.3466 102.325 19.3949 102.325 21.142V29H105.41V20.6648C105.418 17.5284 103.629 15.7386 100.927 15.7386C98.9666 15.7386 97.62 16.6761 97.0234 18.1335H96.87V15.9091H93.9212V29H97.0064V21.3295ZM113.404 29.2301C115.654 29.2301 116.668 27.892 117.154 26.9375H117.342V29H120.376V11.5455H117.282V18.0739H117.154C116.685 17.1278 115.722 15.7386 113.413 15.7386C110.387 15.7386 108.009 18.108 108.009 22.4716C108.009 26.7841 110.319 29.2301 113.404 29.2301ZM114.265 26.6989C112.228 26.6989 111.154 24.9091 111.154 22.4545C111.154 20.017 112.211 18.2699 114.265 18.2699C116.251 18.2699 117.342 19.9148 117.342 22.4545C117.342 24.9943 116.234 26.6989 114.265 26.6989Z" fill="#25373F"/>
<g clip-path="url(#clip0_1_973)">
<path d="M15.7362 16.6388H10.844L12.5105 10.8065C12.5499 10.6681 12.5224 10.5196 12.4358 10.4046C12.3491 10.2895 12.2135 10.2222 12.0696 10.2222H5.65289C5.44618 10.2222 5.26514 10.3606 5.2106 10.56L2.4606 20.6433C2.42302 20.7813 2.45189 20.9288 2.53852 21.042C2.6256 21.1553 2.75989 21.2222 2.90289 21.2222H7.85381L6.11856 30.7651C6.0796 30.9787 6.19602 31.1905 6.39768 31.272C6.45406 31.295 6.51227 31.3055 6.56956 31.3055C6.71943 31.3055 6.86427 31.2322 6.95135 31.1015L16.118 17.3515C16.212 17.2108 16.2207 17.0303 16.1409 16.8813C16.0607 16.7319 15.9054 16.6388 15.7362 16.6388Z" fill="#FF5722"/>
</g>
<defs>
<clipPath id="clip0_1_973">
<rect width="22" height="22" fill="white" transform="translate(0 9)"/>
</clipPath>
</defs>
</svg>
